<svg width="291" height="109" viewBox="0 0 291 109" fill="none" xmlns="http://www.w3.org/2000/svg">
<circle cx="267.829" cy="85.2023" r="23.1706" fill="black"/>
<circle cx="267.829" cy="85.2023" r="13.9024" fill="white"/>
<circle cx="267.829" cy="85.2023" r="10.4268" fill="black"/>
<rect x="281.513" width="5.41342" height="66.6308" rx="2.70671" transform="rotate(8.81265 281.513 0)" fill="black"/>
<rect x="167" y="83.1086" width="34.0609" height="4.08731" rx="2.04365" fill="black"/>
<rect x="167" y="83.1086" width="34.0609" height="4.08731" rx="2.04365" fill="black"/>
<rect x="167" y="83.1086" width="34.0609" height="4.08731" rx="2.04365" fill="black"/>
<rect x="167" y="83.1086" width="34.0609" height="4.08731" rx="2.04365" fill="black"/>
<rect x="167" y="83.1086" width="34.0609" height="4.08731" rx="2.04365" fill="black"/>
<rect x="167" y="83.1086" width="34.0609" height="4.08731" rx="2.04365" fill="black"/>
<rect x="183.349" y="74.934" width="39.5106" height="4.08731" rx="2.04365" fill="black"/>
<rect x="183.349" y="74.934" width="39.5106" height="4.08731" rx="2.04365" fill="black"/>
<rect x="183.349" y="74.934" width="39.5106" height="4.08731" rx="2.04365" fill="black"/>
<rect x="183.349" y="74.934" width="39.5106" height="4.08731" rx="2.04365" fill="black"/>
<rect x="183.349" y="74.934" width="39.5106" height="4.08731" rx="2.04365" fill="black"/>
<rect x="183.349" y="74.934" width="39.5106" height="4.08731" rx="2.04365" fill="black"/>
<rect x="183.349" y="91.2832" width="39.5106" height="4.08731" rx="2.04365" fill="black"/>
<rect x="183.349" y="91.2832" width="39.5106" height="4.08731" rx="2.04365" fill="black"/>
<rect x="183.349" y="91.2832" width="39.5106" height="4.08731" rx="2.04365" fill="black"/>
<rect x="183.349" y="91.2832" width="39.5106" height="4.08731" rx="2.04365" fill="black"/>
<rect x="183.349" y="91.2832" width="39.5106" height="4.08731" rx="2.04365" fill="black"/>
<rect x="183.349" y="91.2832" width="39.5106" height="4.08731" rx="2.04365" fill="black"/>
<path d="M4.8 96C4.09333 96 3.74 95.6467 3.74 94.94V71.28C3.74 70.5733 4.09333 70.22 4.8 70.22C5.30667 70.22 5.70667 70.4533 6 70.92L15.96 86.14L15.48 86.2L25.44 70.92C25.72 70.4533 26.14 70.22 26.7 70.22C27.3267 70.22 27.64 70.5733 27.64 71.28V94.94C27.64 95.6467 27.2933 96 26.6 96C25.8933 96 25.54 95.6467 25.54 94.94V73.38L26.16 73.58L16.92 87.66C16.6267 88.1133 16.2067 88.34 15.66 88.34C15.18 88.34 14.7933 88.1133 14.5 87.66L5.26 73.58L5.84 73.8V94.94C5.84 95.6467 5.49333 96 4.8 96ZM39.8672 104C38.1205 104 36.8272 103.58 35.9872 102.74C35.1605 101.9 34.7472 100.593 34.7472 98.82C34.7472 98.1267 35.0939 97.78 35.7872 97.78C36.4939 97.78 36.8472 98.1267 36.8472 98.82C36.8472 100.02 37.0605 100.833 37.4872 101.26C37.9139 101.687 38.7072 101.9 39.8672 101.9H46.7872C47.9605 101.9 48.7605 101.687 49.1872 101.26C49.6139 100.833 49.8272 100.02 49.8272 98.82V93.32C49.0672 94.32 48.1139 95.02 46.9672 95.42C45.8205 95.82 44.4805 96.02 42.9472 96.02H41.8272C39.3739 96.02 37.5805 95.4533 36.4472 94.32C35.3139 93.1867 34.7472 91.4067 34.7472 88.98V78.12C34.7472 77.4133 35.0939 77.06 35.7872 77.06C36.4939 77.06 36.8472 77.4133 36.8472 78.12V88.98C36.8472 90.8333 37.2072 92.12 37.9272 92.84C38.6605 93.56 39.9605 93.92 41.8272 93.92H42.9472C45.2805 93.92 47.0072 93.5133 48.1272 92.7C49.2605 91.8733 49.8272 90.6333 49.8272 88.98V78.12C49.8272 77.4133 50.1739 77.06 50.8672 77.06C51.5739 77.06 51.9272 77.4133 51.9272 78.12V98.82C51.9272 100.593 51.5072 101.9 50.6672 102.74C49.8405 103.58 48.5472 104 46.7872 104H39.8672ZM59.5841 86.18C59.3174 86.18 59.0841 86.0867 58.8841 85.9C58.6974 85.7 58.6041 85.4667 58.6041 85.2C58.6041 84.92 58.6974 84.6867 58.8841 84.5C59.0841 84.3133 59.3174 84.22 59.5841 84.22H70.6241C70.9041 84.22 71.1374 84.3133 71.3241 84.5C71.5107 84.6867 71.6041 84.92 71.6041 85.2C71.6041 85.4667 71.5107 85.7 71.3241 85.9C71.1374 86.0867 70.9041 86.18 70.6241 86.18H59.5841ZM86.0713 96C83.1779 96 81.0646 95.3333 79.7313 94C78.3979 92.6667 77.7313 90.5533 77.7313 87.66V78.56C77.7313 75.64 78.3913 73.52 79.7113 72.2C81.0446 70.88 83.1513 70.22 86.0313 70.22H90.8713C93.3246 70.22 95.1513 70.7333 96.3513 71.76C97.5513 72.7733 98.2113 74.4067 98.3313 76.66C98.3713 77.02 98.2979 77.2933 98.1113 77.48C97.9379 77.6667 97.6779 77.76 97.3313 77.76C96.6646 77.76 96.2979 77.4067 96.2313 76.7C96.1379 75.0467 95.6846 73.9067 94.8713 73.28C94.0579 72.64 92.7246 72.32 90.8713 72.32H86.0313C84.4979 72.32 83.2779 72.52 82.3713 72.92C81.4646 73.3067 80.8113 73.96 80.4112 74.88C80.0246 75.7867 79.8313 77.0133 79.8313 78.56V87.66C79.8313 89.2067 80.0313 90.4333 80.4313 91.34C80.8313 92.2467 81.4846 92.9 82.3913 93.3C83.2979 93.7 84.5246 93.9 86.0713 93.9H90.8713C92.2313 93.9 93.3046 93.7333 94.0913 93.4C94.8913 93.0667 95.4579 92.5067 95.7913 91.72C96.1246 90.9333 96.2913 89.8467 96.2913 88.46V85.96L91.9113 85.92C91.2179 85.92 90.8713 85.5667 90.8713 84.86C90.8713 84.1667 91.2179 83.82 91.9113 83.82L97.3513 83.86C98.0446 83.86 98.3913 84.2067 98.3913 84.9V88.46C98.3913 91.1 97.7979 93.02 96.6113 94.22C95.4246 95.4067 93.5113 96 90.8713 96H86.0713ZM105.512 73.46C104.592 73.46 104.132 72.9867 104.132 72.04V71.14C104.132 70.22 104.592 69.76 105.512 69.76H106.412C107.305 69.76 107.752 70.22 107.752 71.14V72.04C107.752 72.9867 107.305 73.46 106.412 73.46H105.512ZM105.972 96C105.265 96 104.912 95.6467 104.912 94.94V78.14C104.912 77.4467 105.265 77.1 105.972 77.1C106.665 77.1 107.012 77.4467 107.012 78.14V94.94C107.012 95.6467 106.665 96 105.972 96ZM115.542 96C114.836 96 114.482 95.6467 114.482 94.94V78.14C114.482 77.4467 114.836 77.1 115.542 77.1C116.236 77.1 116.582 77.4467 116.582 78.14V81.22C117.276 79.8867 118.276 78.8667 119.582 78.16C120.902 77.4533 122.462 77.1 124.262 77.1C124.969 77.1 125.322 77.4467 125.322 78.14C125.322 78.8467 124.969 79.2 124.262 79.2C121.889 79.2 120.049 79.74 118.742 80.82C117.436 81.8867 116.716 83.4133 116.582 85.4V94.94C116.582 95.6467 116.236 96 115.542 96ZM135.459 96C132.966 96 131.139 95.4267 129.979 94.28C128.819 93.12 128.239 91.3 128.239 88.82V84.3C128.239 81.78 128.819 79.9467 129.979 78.8C131.139 77.64 132.966 77.0733 135.459 77.1H138.739C141.232 77.1 143.052 77.68 144.199 78.84C145.359 79.9867 145.939 81.8067 145.939 84.3V88.78C145.939 91.2733 145.359 93.1 144.199 94.26C143.052 95.42 141.232 96 138.739 96H135.459ZM130.339 88.82C130.339 90.7 130.712 92.02 131.459 92.78C132.219 93.5267 133.552 93.9 135.459 93.9H138.739C140.646 93.9 141.972 93.5267 142.719 92.78C143.466 92.02 143.839 90.6867 143.839 88.78V84.3C143.839 82.3933 143.466 81.0667 142.719 80.32C141.972 79.5733 140.646 79.2 138.739 79.2H135.459C134.179 79.1867 133.166 79.34 132.419 79.66C131.672 79.98 131.139 80.5133 130.819 81.26C130.499 82.0067 130.339 83.02 130.339 84.3V88.82Z" fill="black"/>
</svg>
