<svg width="124" height="109" viewBox="0 0 124 109" fill="none" xmlns="http://www.w3.org/2000/svg">
<circle cx="100.829" cy="85.2023" r="23.1706" fill="black"/>
<circle cx="100.829" cy="85.2023" r="13.9024" fill="white"/>
<circle cx="100.829" cy="85.2023" r="10.4268" fill="black"/>
<rect x="114.513" width="5.41342" height="66.6308" rx="2.70671" transform="rotate(8.81265 114.513 0)" fill="black"/>
<rect y="83.1086" width="34.0609" height="4.08731" rx="2.04365" fill="black"/>
<rect y="83.1086" width="34.0609" height="4.08731" rx="2.04365" fill="black"/>
<rect y="83.1086" width="34.0609" height="4.08731" rx="2.04365" fill="black"/>
<rect y="83.1086" width="34.0609" height="4.08731" rx="2.04365" fill="black"/>
<rect y="83.1086" width="34.0609" height="4.08731" rx="2.04365" fill="black"/>
<rect y="83.1086" width="34.0609" height="4.08731" rx="2.04365" fill="black"/>
<rect x="16.3492" y="74.934" width="39.5106" height="4.08731" rx="2.04365" fill="black"/>
<rect x="16.3492" y="74.934" width="39.5106" height="4.08731" rx="2.04365" fill="black"/>
<rect x="16.3492" y="74.934" width="39.5106" height="4.08731" rx="2.04365" fill="black"/>
<rect x="16.3492" y="74.934" width="39.5106" height="4.08731" rx="2.04365" fill="black"/>
<rect x="16.3492" y="74.934" width="39.5106" height="4.08731" rx="2.04365" fill="black"/>
<rect x="16.3492" y="74.934" width="39.5106" height="4.08731" rx="2.04365" fill="black"/>
<rect x="16.3492" y="91.2832" width="39.5106" height="4.08731" rx="2.04365" fill="black"/>
<rect x="16.3492" y="91.2832" width="39.5106" height="4.08731" rx="2.04365" fill="black"/>
<rect x="16.3492" y="91.2832" width="39.5106" height="4.08731" rx="2.04365" fill="black"/>
<rect x="16.3492" y="91.2832" width="39.5106" height="4.08731" rx="2.04365" fill="black"/>
<rect x="16.3492" y="91.2832" width="39.5106" height="4.08731" rx="2.04365" fill="black"/>
<rect x="16.3492" y="91.2832" width="39.5106" height="4.08731" rx="2.04365" fill="black"/>
</svg>
